<?xml version="1.0" encoding="utf-8"?>
<!-- Generator: Adobe Illustrator 25.2.0, SVG Export Plug-In . SVG Version: 6.00 Build 0)  -->
<svg width="1em" height="1em" version="1.1" id="圖層_1" xmlns="http://www.w3.org/2000/svg" xmlns:xlink="http://www.w3.org/1999/xlink" x="0px" y="0px"
	 viewBox="0 0 16 16" style="enable-background:new 0 0 16 16;" xml:space="preserve">
<style type="text/css">
	.st0{fill:#040000;}
	.st1{fill:#464646;}
	.st2{fill:#409C8A;}
	.st3{fill:#FDFDFD;}
	.st4{fill:#1A1A1A;}
	.st5{fill:none;stroke:#040000;stroke-width:1.5;stroke-linecap:round;stroke-linejoin:round;stroke-miterlimit:10;}
	.st6{fill:#929292;}
	.st7{fill:#FFFFFF;}
	.st8{fill:none;stroke:#040000;stroke-width:1.5;stroke-miterlimit:10;}
	.st9{fill:#E57F7F;}
	.st10{fill:#D8B673;}
	.st11{fill:#252525;}
</style>
<g>
	<path fill="#929292" d="M8,0C3.59,0,0,3.59,0,8s3.59,8,8,8s8-3.59,8-8S12.41,0,8,0z M14.72,8c0,3.71-3.02,6.72-6.72,6.72
		S1.28,11.71,1.28,8S4.29,1.28,8,1.28S14.72,4.29,14.72,8z"/>
	<path fill="#929292" d="M10.8,8.05H8.48V4.48c0-0.35-0.29-0.64-0.64-0.64S7.2,4.13,7.2,4.48v4.21c0,0.35,0.29,0.64,0.64,0.64h2.96
		c0.35,0,0.64-0.29,0.64-0.64S11.16,8.05,10.8,8.05z"/>
</g>
</svg>
