<?xml version="1.0" encoding="utf-8"?>
<!-- Generator: Adobe Illustrator 25.2.0, SVG Export Plug-In . SVG Version: 6.00 Build 0)  -->
<svg width="1em" height="1em" version="1.1" id="圖層_1" xmlns="http://www.w3.org/2000/svg" xmlns:xlink="http://www.w3.org/1999/xlink" x="0px" y="0px"
	 viewBox="0 0 16 16" style="enable-background:new 0 0 16 16;" xml:space="preserve">
<style type="text/css">
	.st0{fill:#040000;}
	.st1{fill:#464646;}
	.st2{fill:#409C8A;}
	.st3{fill:#FDFDFD;}
	.st4{fill:#1A1A1A;}
	.st5{fill:none;stroke:#040000;stroke-width:1.5;stroke-linecap:round;stroke-linejoin:round;stroke-miterlimit:10;}
	.st6{fill:#929292;}
	.st7{fill:#FFFFFF;}
	.st8{fill:none;stroke:#040000;stroke-width:1.5;stroke-miterlimit:10;}
	.st9{fill:#E57F7F;}
	.st10{fill:#D8B673;}
	.st11{fill:#252525;}
</style>
<path fill="#929292" d="M14.21,2.96l-0.12-0.14l1.26-1.26c0.12-0.12,0.19-0.28,0.19-0.46s-0.07-0.33-0.19-0.46
	c-0.11-0.11-0.28-0.18-0.46-0.18c-0.18,0-0.34,0.07-0.45,0.18l-1.27,1.26l-0.14-0.12C11.61,0.64,9.82,0,8,0C3.59,0,0,3.59,0,8
	c0,1.82,0.64,3.61,1.79,5.04l0.12,0.14l-1.26,1.26c-0.12,0.12-0.19,0.28-0.19,0.46c0,0.17,0.07,0.33,0.19,0.46
	c0.12,0.11,0.28,0.18,0.46,0.18s0.34-0.07,0.46-0.18l1.26-1.26l0.14,0.12C4.39,15.36,6.17,16,8,16c4.41,0,8-3.59,8-8
	C16,6.18,15.36,4.39,14.21,2.96z M8,1.13c1.51,0,3,0.51,4.19,1.44l0.19,0.14l-9.67,9.67l-0.14-0.18C1.63,10.98,1.13,9.53,1.13,8
	C1.13,4.21,4.21,1.13,8,1.13z M8,14.87c-1.51,0-3-0.51-4.19-1.44l-0.19-0.14l9.67-9.67l0.14,0.18c0.93,1.2,1.44,2.69,1.44,4.19
	C14.87,11.79,11.79,14.87,8,14.87z"/>
</svg>
