<?xml version="1.0" encoding="utf-8"?>
<!-- Generator: Adobe Illustrator 25.2.0, SVG Export Plug-In . SVG Version: 6.00 Build 0)  -->
<svg width="1em" height="1em" version="1.1" id="圖層_1" xmlns="http://www.w3.org/2000/svg" xmlns:xlink="http://www.w3.org/1999/xlink" x="0px" y="0px"
	 viewBox="0 0 16 16" style="enable-background:new 0 0 16 16;" xml:space="preserve">
<style type="text/css">
	.st0{fill:#040000;}
	.st1{fill:#464646;}
	.st2{fill:#409C8A;}
	.st3{fill:#FDFDFD;}
	.st4{fill:#1A1A1A;}
	.st5{fill:none;stroke:#040000;stroke-width:1.5;stroke-linecap:round;stroke-linejoin:round;stroke-miterlimit:10;}
	.st6{fill:#929292;}
	.st7{fill:#FFFFFF;}
	.st8{fill:none;stroke:#040000;stroke-width:1.5;stroke-miterlimit:10;}
	.st9{fill:#E57F7F;}
	.st10{fill:#D8B673;}
	.st11{fill:#252525;}
</style>
<g>
	<path fill="#929292" d="M12.12,0H3.88C1.74,0,0,1.74,0,3.88v8.24C0,14.26,1.74,16,3.88,16h8.24c2.14,0,3.88-1.74,3.88-3.88V3.88
		C16,1.74,14.26,0,12.12,0z M12.12,14.78H3.88c-1.47,0-2.66-1.19-2.66-2.66v-0.29l3.17-2.51l3.45,2.69
		c0.22,0.18,0.55,0.17,0.77-0.01l6.16-5.14v5.26C14.78,13.58,13.59,14.78,12.12,14.78z M3.88,1.22h8.24c1.47,0,2.66,1.19,2.66,2.66
		v1.39l-6.57,5.48L4.76,8.06C4.65,7.97,4.52,7.93,4.39,7.93c-0.13,0-0.27,0.04-0.38,0.13l-2.78,2.2V3.88
		C1.22,2.42,2.42,1.22,3.88,1.22z"/>
	<path fill="#929292" d="M9.22,6.14c0.75,0,1.35-0.61,1.35-1.35c0-0.75-0.61-1.35-1.35-1.35c-0.75,0-1.35,0.61-1.35,1.35
		C7.87,5.53,8.47,6.14,9.22,6.14z"/>
</g>
</svg>
