<?xml version="1.0" encoding="utf-8"?>
<!-- Generator: Adobe Illustrator 25.2.0, SVG Export Plug-In . SVG Version: 6.00 Build 0)  -->
<svg version="1.1" xmlns="http://www.w3.org/2000/svg" xmlns:xlink="http://www.w3.org/1999/xlink" x="0px" y="0px"
	 viewBox="0 0 20 20" enable-background="new 0 0 20 20" xml:space="preserve">
<g id="工作區域">
</g>
<g id="素材">
	<g transform="rotate(30) translate(-50%)" >
		<path fill="#eac58a" d="M19.65,10.57l-5.07-3.65l-0.07-6.1c-0.01-0.31-0.18-0.58-0.45-0.73c-0.27-0.15-0.61-0.13-0.86,0.05
			L8.41,3.68l-5.83-2.1c-0.2-0.07-0.42-0.05-0.61,0.04c-0.19,0.1-0.33,0.26-0.4,0.46c-0.05,0.16-0.05,0.34,0,0.51l2.1,5.82
			l-3.53,4.8c-0.18,0.25-0.2,0.58-0.05,0.85c0.14,0.27,0.42,0.44,0.73,0.45l6.1,0.07l3.64,5.07c0.16,0.22,0.41,0.35,0.68,0.35
			c0.03,0,0.07,0,0.11-0.01c0.31-0.04,0.56-0.26,0.65-0.55l1.67-5.77L19.44,12c0.3-0.08,0.52-0.34,0.56-0.65
			C20.03,11.05,19.9,10.75,19.65,10.57z M5.25,9.05c0.16-0.22,0.19-0.5,0.1-0.74L3.68,3.66l4.64,1.67c0.25,0.09,0.53,0.06,0.75-0.1
			l3.85-2.83l0.04,4.91v0c0.01,0.26,0.14,0.51,0.35,0.67l4.06,2.92l-4.61,1.33c-0.25,0.07-0.46,0.28-0.53,0.53l-1.33,4.61
			l-2.92-4.06c-0.15-0.21-0.4-0.34-0.67-0.35l-4.9-0.06L5.25,9.05z"/>
	</g>
</g>
</svg>
